<svg width="39" height="40" viewBox="0 0 39 40" fill="none" xmlns="http://www.w3.org/2000/svg">
<path d="M20.7394 16.8437L0.795357 36.7969C0.0616022 37.5312 0.0616022 38.7187 0.795357 39.4453C1.52911 40.1719 2.71561 40.1797 3.44156 39.4453L9.28037 33.6016C9.85801 33.9609 10.4747 34.2422 11.1382 34.4219C14.6352 35.375 20.0759 35.5078 25.3839 31.9844C26.3363 31.3515 25.8367 30 24.697 30H23.4403C23.0422 30 22.7221 29.6797 22.7221 29.2812C22.7221 28.9609 22.9329 28.6875 23.2295 28.5937L30.8559 26.3047C31.1213 26.2266 31.3555 26.0625 31.5116 25.8281C31.855 25.3281 32.1829 24.8203 32.4951 24.2969C32.9791 23.4922 32.378 22.5 31.4413 22.5H28.4282C28.0301 22.5 27.7101 22.1797 27.7101 21.7812C27.7101 21.4609 27.9209 21.1875 28.2175 21.0937L34.5325 19.1953C34.8915 19.0859 35.1882 18.8203 35.3287 18.4687C37.6002 12.7344 38.6384 6.72655 38.9584 2.87499C39.0209 2.10155 38.7242 1.34374 38.1778 0.796861C37.6314 0.249986 36.8742 -0.0468892 36.1014 0.0156108C29.5601 0.546861 16.8365 3.16405 9.72531 10.2812C3.47278 16.5391 3.42595 23.6172 4.56561 27.8437C4.72953 28.4609 5.50232 28.5937 5.95506 28.1406L18.7958 15.2969C19.2797 14.8125 20.0759 14.8125 20.5599 15.2969C20.9814 15.7187 21.0361 16.3594 20.7316 16.8437H20.7394Z" fill="white"/>
</svg>
