<svg width="34" height="34" viewBox="0 0 34 34" fill="none" xmlns="http://www.w3.org/2000/svg">
<path d="M33.6667 9.06661C33.6679 8.84727 33.6259 8.62983 33.543 8.42677C33.46 8.22371 33.3378 8.03901 33.1833 7.88328L26.1167 0.816613C25.9609 0.662144 25.7762 0.539935 25.5732 0.456994C25.3701 0.374053 25.1527 0.332012 24.9333 0.33328C24.714 0.332012 24.4966 0.374053 24.2935 0.456994C24.0904 0.539935 23.9057 0.662144 23.75 0.816613L19.0333 5.53328L0.816666 23.7499C0.662198 23.9057 0.539989 24.0904 0.457048 24.2934C0.374107 24.4965 0.332065 24.7139 0.333333 24.9333V31.9999C0.333333 32.442 0.508928 32.8659 0.821488 33.1785C1.13405 33.491 1.55797 33.6666 2 33.6666H9.06667C9.29988 33.6793 9.53315 33.6428 9.75137 33.5596C9.96958 33.4763 10.1679 33.3481 10.3333 33.1833L28.45 14.9666L33.1833 10.3333C33.3355 10.1717 33.4594 9.98583 33.55 9.78328C33.5661 9.65043 33.5661 9.51613 33.55 9.38328C33.5578 9.3057 33.5578 9.22753 33.55 9.14995L33.6667 9.06661ZM8.38333 30.3333H3.66667V25.6166L20.2167 9.06661L24.9333 13.7833L8.38333 30.3333ZM27.2833 11.4333L22.5667 6.71661L24.9333 4.36661L29.6333 9.06661L27.2833 11.4333Z" fill="white"/>
</svg>
